# xmcd
# Track frame offsets:
# 150
# 21476
# 39328
# 61411
# 81246
# 99522
# 122708
# 140184
# 155979
# 167466
# 181850
# 194203
# 210686
# 226622
# 242170
# 258849
# 272093
# 292858
# 314321
# 328432
#
# Disc length: 4570 seconds
# Revision: 0
# Processed by: cddbd v1.5.2PL0 Copyright (c) Steve Scherf et al.
# Submitted via: VisiTrax 2.11.3.279 - For more info visit www.synapsa.com
#
DISCID=2a11d814
DTITLE=Various (1960's-1970's) Pop and Rock and Prog Rock and Disco and Funk and AO
DTITLE=R and Country and Country Pop Artists - The 70's US Playlist: 60 ClassicU
DTITLE=S Tracks From The Seventies: CD2 of 3: *ReMastered Tracks
DYEAR=1970
DGENRE=Pop
TTITLE0=Boston - More Than A Feeling*
TTITLE1=TOTO - Hold The Line*
TTITLE2=Meatloaf - Bat Out Of Hell*
TTITLE3=Heart - Barracuda*
TTITLE4=Santana - She's Not There*
TTITLE5=Blue Oyster Cult - (Don't Fear) The Reaper*
TTITLE6=Guess Who The - American Woman*
TTITLE7=Iggy and The Stooges - Search And Destroy (Iggy Pop Mix)*
TTITLE8=Mountain - Mississippi Queen*
TTITLE9=Cheap Trick - I Want You Yo Want Me*
TTITLE10=Redbone - The Witch Queen Of New Orleans*
TTITLE11=Ted Nugent - Cat Scratch Fever*
TTITLE12=Flaming Ember The - Westbound #9*
TTITLE13=Kansas - Dust In The Wind*
TTITLE14=Boz Scaqggs - Lido Shuffle*
TTITLE15=Lynn Anderson - Rose Garden*
TTITLE16=Melanie - Ruby Tuesday*
TTITLE17=Edgar Winter Group The - Frankenstein*
TTITLE18=George Jones - The Grand Tour*
TTITLE19=Dan Fogelberg - Longer*
EXTD=Compilation and ReMastering: Crimson/Sony: 2017
EXTT0=
EXTT1=
EXTT2=
EXTT3=
EXTT4=
EXTT5=
EXTT6=
EXTT7=
EXTT8=
EXTT9=
EXTT10=
EXTT11=
EXTT12=
EXTT13=
EXTT14=
EXTT15=
EXTT16=
EXTT17=
EXTT18=
EXTT19=
PLAYORDER=
